External Loads File
version=1
nRows=54
nColumns=13
Range=5.000000e-03-10 seconds
endheader
time 	forceRightX 	forceRightY 	forceRightZ 	pointRightX 	pointRightY 	pointRightZ 	forceLeftX 	forceLeftY 	forceLeftZ 	pointLeftX 	pointLeftY 	pointLeftZ 		
7.505000 -58.646812 773.780427 -0.000000 0.402001 0.277487 -0.101073 136.246075 -32.118846 -0.000000 0.106348 0.341241 -0.337936
7.510000 -52.170977 778.445283 -0.000000 0.399166 0.266920 -0.100741 127.679101 -38.208468 -0.000000 0.110071 0.351359 -0.337923
7.515000 -44.387409 781.715884 -0.000000 0.395862 0.256641 -0.100584 118.163401 -43.506501 -0.000000 0.114381 0.361281 -0.337992
7.520000 -35.194954 784.220309 -0.000000 0.391990 0.246758 -0.100448 108.191973 -47.891673 -0.000000 0.119157 0.371063 -0.337794
7.525000 -24.065866 786.350687 -0.000000 0.387613 0.237107 -0.100283 98.071243 -51.333761 -0.000000 0.124471 0.380658 -0.337783
7.530000 -11.230005 788.244918 -0.000000 0.382602 0.227988 -0.100173 87.972079 -53.619644 -0.000000 0.130324 0.390121 -0.337780
7.535000 3.541055 789.908432 -0.000000 0.377137 0.218921 -0.099835 77.922486 -54.439023 -0.000000 0.136582 0.399267 -0.337892
7.540000 19.279573 791.251758 -0.000000 0.371343 0.210325 -0.099653 68.044816 -53.221051 -0.000000 0.143367 0.408140 -0.337896
7.545000 35.730779 792.105652 -0.000000 0.365183 0.202089 -0.099545 58.506018 -49.394497 -0.000000 0.150567 0.416616 -0.338050
7.550000 53.032463 792.095848 -0.000000 0.358709 0.194188 -0.099448 49.558824 -42.356298 -0.000000 0.158180 0.424863 -0.338155
7.555000 70.220370 790.693222 -0.000000 0.351918 0.186782 -0.099282 41.622065 -31.466413 -0.000000 0.166144 0.432639 -0.338413
7.560000 87.150049 787.206969 -0.000000 0.344740 0.179848 -0.099110 35.115219 -16.347979 -0.000000 0.174471 0.439848 -0.338565
7.565000 102.380930 781.147790 -0.000000 0.337319 0.173516 -0.098772 30.442434 3.077287 -0.000000 0.182916 0.446482 -0.338640
7.570000 115.906540 772.157109 -0.000000 0.329614 0.167630 -0.098352 27.842400 26.334720 -0.000000 0.191692 0.452502 -0.338701
7.575000 126.801820 760.496688 -0.000000 0.321663 0.162288 -0.097879 27.350491 52.467149 -0.000000 0.200777 0.457940 -0.338726
7.580000 134.816540 747.035757 -0.000000 0.313554 0.157397 -0.097394 28.743564 80.040257 -0.000000 0.210319 0.462720 -0.339115
7.585000 138.434233 733.616163 -0.000000 0.305311 0.153184 -0.096895 31.335581 107.296502 -0.000000 0.219582 0.467118 -0.339024
7.590000 138.659876 722.131506 -0.000000 0.296945 0.149573 -0.096466 34.341680 132.221477 -0.000000 0.228758 0.471067 -0.339180
7.595000 137.283560 714.329025 -0.000000 0.288360 0.146685 -0.096107 36.921547 153.114213 -0.000000 0.238055 0.475074 -0.339263
7.600000 135.529773 711.506688 -0.000000 0.279210 0.144526 -0.095830 38.148079 169.209145 -0.000000 0.247260 0.478458 -0.339320
7.605000 134.731233 713.844030 -0.000000 0.269607 0.142955 -0.095677 37.455899 180.773929 -0.000000 0.256516 0.481278 -0.339492
7.610000 134.768263 720.379564 -0.000000 0.259697 0.142178 -0.095745 34.474616 188.844394 -0.000000 0.265482 0.483322 -0.339742
7.615000 136.509679 728.572789 -0.000000 0.249704 0.142320 -0.095897 29.609712 194.589779 -0.000000 0.274467 0.484504 -0.339919
7.620000 139.224208 735.056341 -0.000000 0.239758 0.143013 -0.096143 23.203385 199.013423 -0.000000 0.283122 0.484932 -0.340188
7.625000 142.803708 735.643748 -0.000000 0.229931 0.144480 -0.096282 15.954716 202.611619 -0.000000 0.291499 0.484686 -0.340286
7.630000 146.630677 726.198775 -0.000000 0.220268 0.146618 -0.096452 8.570897 205.423363 -0.000000 0.299637 0.483897 -0.340314
7.635000 149.155326 703.575427 -0.000000 0.210953 0.149478 -0.096473 1.586700 207.144723 -0.000000 0.307400 0.482564 -0.340401
7.640000 148.841104 666.264816 -0.000000 0.202022 0.152804 -0.096550 -4.574577 207.218448 -0.000000 0.314644 0.480703 -0.340560
7.645000 144.729877 614.817039 -0.000000 0.193563 0.156996 -0.096471 -9.701761 204.996634 -0.000000 0.321266 0.478416 -0.340678
7.650000 136.604504 551.847798 -0.000000 0.185423 0.161627 -0.096355 -13.930169 200.030191 -0.000000 0.327346 0.475798 -0.340859
7.655000 125.490314 481.390936 -0.000000 0.177588 0.166724 -0.096304 -17.541853 192.387851 -0.000000 0.333289 0.472523 -0.341378
7.660000 111.632080 408.477085 -0.000000 0.169942 0.172286 -0.096034 -21.530761 182.721938 -0.000000 0.338817 0.468836 -0.341409
7.665000 96.655884 337.559303 -0.000000 0.162383 0.178373 -0.095814 -26.485388 172.236966 -0.000000 0.344292 0.464417 -0.341406
7.670000 81.729883 272.217931 -0.000000 0.154633 0.185000 -0.096065 -32.947356 162.398958 -0.000000 0.349800 0.459070 -0.341360
7.675000 67.291237 214.959932 -0.000000 0.147338 0.192224 -0.095945 -41.375647 154.540897 -0.000000 0.355641 0.452708 -0.341546
7.680000 53.684729 167.131751 -0.000000 0.140326 0.199905 -0.095859 -51.716487 149.550212 -0.000000 0.361306 0.445421 -0.341590
7.685000 41.381858 129.141204 -0.000000 0.133809 0.208198 -0.095809 -63.178423 147.781721 -0.000000 0.366819 0.437336 -0.341806
7.690000 30.618962 100.928259 -0.000000 0.127798 0.216769 -0.095745 -74.746114 148.972424 -0.000000 0.372031 0.428716 -0.341912
7.695000 21.725468 82.121599 -0.000000 0.122227 0.225639 -0.095768 -85.365957 152.408456 -0.000000 0.376601 0.419982 -0.342138
7.700000 15.108237 72.087848 -0.000000 0.117508 0.234668 -0.095724 -94.300609 157.240245 -0.000000 0.380478 0.411077 -0.342318
7.705000 11.268727 69.867250 -0.000000 0.113237 0.243908 -0.095801 -100.961411 163.061725 -0.000000 0.383877 0.401818 -0.342344
7.710000 10.511678 74.228908 -0.000000 0.109352 0.253426 -0.095742 -105.233749 169.795022 -0.000000 0.386831 0.391737 -0.342363
7.715000 12.441604 83.723887 -0.000000 0.106050 0.263026 -0.095885 -108.429445 176.874306 -0.000000 0.389391 0.382368 -0.342398
7.720000 17.215970 96.553011 -0.000000 0.102310 0.272915 -0.096951 -110.138960 185.041086 -0.000000 0.391387 0.372439 -0.342335
7.725000 24.058260 111.020299 -0.000000 0.100074 0.283111 -0.097087 -111.389472 194.235704 -0.000000 0.392971 0.362494 -0.342159
7.730000 32.672526 125.660982 -0.000000 0.099165 0.293562 -0.096321 -111.905917 205.068241 -0.000000 0.394298 0.351993 -0.342143
7.735000 42.507888 139.597891 -0.000000 0.097834 0.304370 -0.096595 -111.894955 217.706566 -0.000000 0.394870 0.341617 -0.341732
7.740000 53.167008 152.477680 -0.000000 0.097212 0.315207 -0.096572 -111.469369 232.312680 -0.000000 0.395072 0.330986 -0.342313
7.745000 64.425862 164.306407 -0.000000 0.097004 0.326162 -0.096845 -110.648810 249.031655 -0.000000 0.394641 0.320304 -0.342023
7.750000 76.139736 175.247179 -0.000000 0.097507 0.337107 -0.096973 -109.416136 267.855457 -0.000000 0.394000 0.309683 -0.341576
7.755000 88.092611 185.446875 -0.000000 0.098374 0.347770 -0.097283 -107.894017 288.539531 -0.000000 0.392668 0.299324 -0.341558
7.760000 100.562939 194.569893 -0.000000 0.099846 0.358401 -0.097630 -105.438643 311.070057 -0.000000 0.391052 0.289036 -0.341938
7.765000 113.454588 202.096553 -0.000000 0.102124 0.368854 -0.097762 -101.860792 335.288044 -0.000000 0.388635 0.278828 -0.341944
7.770000 126.286247 207.478868 -0.000000 0.104680 0.379313 -0.097944 -97.362642 360.984396 -0.000000 0.385767 0.268881 -0.341851
